<svg width="400" height="400" viewBox="0 0 400 400" fill="none" xmlns="http://www.w3.org/2000/svg">
  <defs>
    <radialGradient id="body-radial" cx="200" cy="180" r="160" gradientUnits="userSpaceOnUse">
      <stop offset="0%" stop-color="#38bdf8" />
      <stop offset="60%" stop-color="#0ea5e9" />
      <stop offset="100%" stop-color="#1d4ed8" />
    </radialGradient>
    <filter id="soft-shadow" x="-30%" y="-30%" width="160%" height="160%">
      <feGaussianBlur in="SourceAlpha" stdDeviation="6" />
      <feOffset dx="0" dy="10" result="offsetblur" />
      <feComponentTransfer><feFuncA type="linear" slope="0.3" /></feComponentTransfer>
      <feMerge><feMergeNode /><feMergeNode in="SourceGraphic" /></feMerge>
    </filter>
  </defs>

        <g filter="url(#soft-shadow)">
            <path d="M 180 310 L 160 360" stroke="white" stroke-width="24" stroke-linecap="round" />
            <path d="M 220 310 L 240 360" stroke="white" stroke-width="24" stroke-linecap="round" />
            <path d="M 160 360 Q 140 365 130 385 L 170 390 Z" fill="white" />
            <path d="M 240 360 Q 260 365 270 385 L 230 390 Z" fill="white" />
        </g>
        <g filter="url(#soft-shadow)"><path d="M 200 65 C 200 65 90 170 90 245 C 90 320 140 350 200 350 C 260 350 310 320 310 245 C 310 170 200 65 200 65 Z" fill="url(#body-radial)" />
    <ellipse cx="160" cy="205" rx="32" ry="48" fill="white" />
    <ellipse cx="240" cy="205" rx="32" ry="48" fill="white" />
    <circle cx="165" cy="215" r="16" fill="#0f172a" />
    <circle cx="245" cy="215" r="16" fill="#0f172a" />
    <circle cx="168" cy="208" r="6" fill="white" fill-opacity="0.8" />
    <circle cx="248" cy="208" r="6" fill="white" fill-opacity="0.8" />

            <path d="M 175 270 Q 200 290 225 270" stroke="#0f172a" stroke-width="6" stroke-linecap="round" fill="none" />
        </g>
        <g filter="url(#soft-shadow)">
            <path d="M 100 220 Q 70 150 110 120" stroke="#1d4ed8" stroke-width="26" stroke-linecap="round" fill="none" />
            <path d="M 300 220 Q 330 150 290 120" stroke="#1d4ed8" stroke-width="26" stroke-linecap="round" fill="none" />
        </g>
    </svg>